<?xml version="1.0" standalone="no"?>
<!DOCTYPE svg PUBLIC "-//W3C//DTD SVG 20010904//EN"
 "http://www.w3.org/TR/2001/REC-SVG-20010904/DTD/svg10.dtd">
<svg version="1.0" xmlns="http://www.w3.org/2000/svg"
 width="700.000000pt" height="700.000000pt" viewBox="0 0 700.000000 700.000000"
 preserveAspectRatio="xMidYMid meet">
<metadata>
Created by potrace 1.11, written by Peter Selinger 2001-2013
</metadata>
<g transform="translate(0.000000,700.000000) scale(0.100000,-0.100000)"
fill="#000000" stroke="none">
<path d="M830 6122 c-47 -4 -122 -29 -174 -58 -48 -27 -146 -120 -146 -139 0
-7 -7 -18 -15 -25 -13 -11 -39 -87 -52 -150 -3 -14 -5 -426 -6 -916 0 -863 0
-892 19 -915 10 -13 681 -684 1489 -1491 1561 -1557 1499 -1499 1628 -1532 44
-12 145 -13 197 -3 37 7 98 32 135 55 66 40 1689 1669 1716 1722 53 103 70
206 50 301 -14 64 -54 151 -90 193 -14 17 -685 689 -1491 1495 l-1464 1466
-881 0 c-484 0 -896 -1 -915 -3z m918 -890 c68 -20 142 -88 182 -167 31 -61
35 -76 34 -144 -3 -259 -279 -411 -496 -275 -99 63 -151 155 -151 273 -1 134
68 241 194 301 48 23 71 27 126 26 38 -1 87 -8 111 -14z"/>
</g>
</svg>
